<svg xmlns="http://www.w3.org/2000/svg" viewBox="0 0 512 512" aria-hidden="true">
  <path d="M464 64H48C21.49 64 0 85.49 0 112v288c0 26.51 21.49 48 48 48h416c26.51 0 48-21.49 48-48V112c0-26.51-21.49-48-48-48z" fill="#fff"/>
  <path d="M464 64H48C21.49 64 0 85.49 0 112v19.2l256 179.2 256-179.2V112c0-26.51-21.49-48-48-48z" fill="#fff"/>
  <path d="M48 448h88V240.64L0 144v256c0 26.51 21.49 48 48 48z" fill="#4285F4"/>
  <path d="M376 448h88c26.51 0 48-21.49 48-48V144L376 240.64V448z" fill="#34A853"/>
  <path d="M136 240.64V448h240V240.64L256 326.4 136 240.64z" fill="#EA4335"/>
  <path d="M136 240.64L256 326.4l120-85.76V131.2L256 217.6l-120-86.4v109.44z" fill="#FBBC04"/>
  <path d="M0 112v32l136 96.64V131.2L48 64C21.49 64 0 85.49 0 112z" fill="#C5221F"/>
  <path d="M512 112c0-26.51-21.49-48-48-48l-88 67.2v109.44L512 144v-32z" fill="#188038"/>
</svg>
