<svg xmlns="http://www.w3.org/2000/svg" viewBox="0 0 1000 324" aria-hidden="true">
  <path fill="#1434CB" d="M651.19.5c-70.93 0-134.32 36.77-134.32 104.69 0 77.9 112.42 83.28 112.42 122.42 0 16.48-18.88 31.23-51.14 31.23-45.77 0-79.98-20.61-79.98-20.61l-14.64 68.55s39.41 17.41 91.73 17.41c77.55 0 138.58-38.57 138.58-107.66 0-82.32-112.89-87.54-112.89-123.86 0-12.91 15.5-27.05 47.66-27.05 36.29 0 65.89 14.99 65.89 14.99l14.33-66.2S696.63.5 651.2.5zM.86 5.5L.66 9.99s29.83 5.46 56.7 16.35c34.6 12.49 37.07 19.77 42.89 42.35l63.48 244.83h85.06L379.79 5.5h-84.86L210.69 218.3l-34.45-181c-3.16-20.72-19.17-32.8-38.76-32.8H.86zm413.13 0L347.44 308.83h80.93L494.71 5.5h-80.73zm451.54 0c-19.57 0-29.94 10.48-37.55 28.79l-118.55 274.54h84.86l16.41-47.41h103.42l9.97 47.41H999.3L933.89 5.5h-68.38zm11.05 82l25.16 117.55h-67.4l42.24-117.55z"/>
</svg>
